<svg width="39" height="28" viewBox="0 0 39 28" fill="none" xmlns="http://www.w3.org/2000/svg">
<path d="M38.7302 6.5296C39.0231 6.2367 39.0231 5.76183 38.7302 5.46894L33.9573 0.695967C33.6644 0.403073 33.1895 0.403073 32.8966 0.695967C32.6037 0.98886 32.6037 1.46373 32.8966 1.75663L37.1392 5.99927L32.8966 10.2419C32.6037 10.5348 32.6037 11.0097 32.8966 11.3026C33.1895 11.5955 33.6644 11.5955 33.9573 11.3026L38.7302 6.5296ZM1.3999 6.74927H38.1999V5.24927H1.3999V6.74927Z" fill="black" fill-opacity="0.7"/>
<path d="M0.870354 22.5294C0.577461 22.2365 0.577461 21.7616 0.870354 21.4687L5.64333 16.6957C5.93622 16.4028 6.41109 16.4028 6.70399 16.6957C6.99688 16.9886 6.99688 17.4635 6.70399 17.7564L2.46135 21.999L6.70399 26.2417C6.99688 26.5346 6.99688 27.0094 6.70399 27.3023C6.41109 27.5952 5.93622 27.5952 5.64333 27.3023L0.870354 22.5294ZM38.2007 22.749H1.40068V21.249H38.2007V22.749Z" fill="black" fill-opacity="0.7"/>
</svg>
