<svg width="150" height="150" viewBox="0 0 150 150" fill="none" xmlns="http://www.w3.org/2000/svg">
<path d="M75 0C33.6462 0 0 33.6433 0 75C0 116.357 33.6462 150 75 150C116.354 150 150 116.357 150 75C150 33.6433 116.354 0 75 0ZM75 144.231C36.8279 144.231 5.76923 113.172 5.76923 75C5.76923 36.8279 36.8279 5.76923 75 5.76923C113.172 5.76923 144.231 36.8279 144.231 75C144.231 113.172 113.172 144.231 75 144.231Z" fill="black" fill-opacity="0.4"/>
<path d="M111.059 72.1154H77.8855V40.3846C77.8855 38.7894 76.5932 37.5 75.0009 37.5C73.4086 37.5 72.1163 38.7894 72.1163 40.3846V72.1154H38.9432C37.3509 72.1154 36.0586 73.4048 36.0586 75C36.0586 76.5952 37.3509 77.8846 38.9432 77.8846H72.1163V112.5C72.1163 114.095 73.4086 115.385 75.0009 115.385C76.5932 115.385 77.8855 114.095 77.8855 112.5V77.8846H111.059C112.651 77.8846 113.943 76.5952 113.943 75C113.943 73.4048 112.651 72.1154 111.059 72.1154Z" fill="black" fill-opacity="0.4"/>
</svg>
