<svg width="48" height="48" viewBox="0 0 48 48" fill="none" xmlns="http://www.w3.org/2000/svg">
<g clip-path="url(#clip0)">
<path d="M24.2071 0C11.0922 0 0.421875 10.6703 0.421875 23.7853C0.421875 36.9002 11.0922 47.5705 24.2071 47.5705C37.3221 47.5705 47.9924 36.9002 47.9924 23.7853C47.9924 10.6703 37.3221 0 24.2071 0ZM24.2071 44.5974C12.7311 44.5974 3.39505 35.2613 3.39505 23.7853C3.39505 12.3093 12.7311 2.97317 24.2071 2.97317C35.6832 2.97317 45.0193 12.3093 45.0193 23.7853C45.0193 35.2613 35.6832 44.5974 24.2071 44.5974Z" fill="black" fill-opacity="0.9"/>
<path d="M25.6934 8.91895H22.7202V24.4002L32.0752 33.7552L34.1773 31.6531L25.6934 23.1692V8.91895Z" fill="black" fill-opacity="0.9"/>
</g>
<defs>
<clipPath id="clip0">
<rect width="47.5705" height="47.5705" fill="white" transform="translate(0.421875)"/>
</clipPath>
</defs>
</svg>
