<svg width="49" height="49" viewBox="0 0 49 49" fill="none" xmlns="http://www.w3.org/2000/svg">
<g clip-path="url(#clip0)">
<path d="M27.6424 12.8423H20.1785C19.4088 12.8423 18.7848 13.4663 18.7848 14.236V24.7845H17.193C16.4233 24.7845 15.7993 25.4084 15.7993 26.1781C15.7993 26.9478 16.4233 27.5718 17.193 27.5718H18.7848V30.7556H17.193C16.4233 30.7556 15.7993 31.3796 15.7993 32.1493C15.7993 32.9189 16.4233 33.5429 17.193 33.5429H18.7848V36.6276C18.7848 37.3972 19.4088 38.0212 20.1785 38.0212C20.9482 38.0212 21.5722 37.3972 21.5722 36.6276V33.5429H27.6424C28.4121 33.5429 29.0361 32.9189 29.0361 32.1493C29.0361 31.3796 28.4121 30.7556 27.6424 30.7556H21.5722V27.5718H27.6424C31.7034 27.5718 35.0072 24.268 35.0072 20.207C35.0071 16.0457 31.6175 12.8423 27.6424 12.8423ZM27.6424 24.7845H21.5722V15.6296H27.6424C30.1512 15.6296 32.2199 17.6532 32.2199 20.2071C32.2198 22.7311 30.1665 24.7845 27.6424 24.7845Z" fill="black" fill-opacity="0.9"/>
<path d="M24.6564 0.902344C11.5411 0.902344 0.871094 11.5724 0.871094 24.6876C0.871094 37.8029 11.5411 48.4729 24.6564 48.4729C37.7716 48.4729 48.4416 37.8029 48.4416 24.6876C48.4416 11.5724 37.7716 0.902344 24.6564 0.902344ZM24.6564 45.6856C13.078 45.6856 3.65843 36.2659 3.65843 24.6876C3.65843 13.1093 13.078 3.68968 24.6564 3.68968C36.2347 3.68968 45.6543 13.1093 45.6543 24.6876C45.6543 36.2659 36.2347 45.6856 24.6564 45.6856Z" fill="black" fill-opacity="0.9"/>
</g>
<defs>
<clipPath id="clip0">
<rect width="47.5705" height="47.5705" fill="white" transform="translate(0.871094 0.902344)"/>
</clipPath>
</defs>
</svg>
