<svg width="48" height="48" viewBox="0 0 48 48" fill="none" xmlns="http://www.w3.org/2000/svg">
<path d="M45.858 23.785C45.858 35.9753 35.9757 45.8575 23.7853 45.8575C11.5948 45.8575 1.71254 35.9753 1.71254 23.785C1.71254 11.5947 11.5948 1.71254 23.7853 1.71254C35.9757 1.71254 45.858 11.5947 45.858 23.785Z" stroke="black" stroke-opacity="0.9" stroke-width="3.42508"/>
<g clip-path="url(#clip0)">
<path d="M29.0539 31.7348L28.6994 33.1839C27.636 33.6037 26.7864 33.9232 26.1539 34.1428C25.5206 34.3632 24.7848 34.4728 23.9464 34.4728C22.6589 34.4728 21.6575 34.1574 20.9433 33.5309C20.2291 32.902 19.8719 32.105 19.8719 31.1382C19.8719 30.7639 19.8978 30.3789 19.9517 29.9867C20.006 29.594 20.0925 29.1517 20.2107 28.6574L21.5398 23.9532C21.658 23.5028 21.7585 23.076 21.839 22.6724C21.9206 22.2713 21.96 21.9022 21.96 21.57C21.96 20.9693 21.8356 20.5491 21.588 20.3128C21.3403 20.0772 20.8678 19.9576 20.1664 19.9576C19.8228 19.9576 19.4696 20.0127 19.1097 20.1191C18.7482 20.2259 18.4391 20.3292 18.1797 20.4251L18.5351 18.9749C19.4057 18.6204 20.238 18.3168 21.0341 18.0649C21.8301 17.8123 22.5823 17.6858 23.2938 17.6858C24.5724 17.6858 25.559 17.9948 26.2519 18.6129C26.9447 19.2314 27.291 20.0331 27.291 21.0211C27.291 21.2255 27.2683 21.5857 27.2194 22.1005C27.1716 22.6164 27.0827 23.0892 26.9531 23.5192L25.6297 28.2044C25.5213 28.5808 25.4237 29.011 25.3389 29.4951C25.2514 29.976 25.2095 30.3434 25.2095 30.5899C25.2095 31.2121 25.3482 31.6368 25.6263 31.8626C25.9065 32.0884 26.389 32.2007 27.0743 32.2007C27.3961 32.2007 27.7622 32.1437 28.1689 32.0316C28.5746 31.9195 28.8704 31.821 29.0539 31.7348ZM29.3896 12.0646C29.3896 12.8809 29.0819 13.5781 28.4636 14.1514C27.847 14.7266 27.1039 15.0145 26.2346 15.0145C25.3626 15.0145 24.6176 14.7266 23.9939 14.1514C23.3713 13.5779 23.0594 12.8809 23.0594 12.0646C23.0594 11.2499 23.3713 10.5516 23.9939 9.9711C24.6165 9.3915 25.3628 9.10181 26.2346 9.10181C27.1036 9.10181 27.847 9.39218 28.4636 9.9711C29.0824 10.5516 29.3896 11.2501 29.3896 12.0646Z" fill="black" fill-opacity="0.9"/>
</g>
<defs>
<clipPath id="clip0">
<rect width="25.371" height="25.371" fill="white" transform="translate(11.0996 9.10156)"/>
</clipPath>
</defs>
</svg>
