<svg width="177" height="213" viewBox="0 0 177 213" fill="none" xmlns="http://www.w3.org/2000/svg">
<rect x="28.0293" y="70.2036" width="121.101" height="99.85" fill="#FCD876"/>
<path d="M170.973 32.8695C144.651 32.8678 118.918 25.0822 97.0158 10.4888L88.501 4.8161L80.1147 10.4254C58.3378 24.9641 32.7574 32.7702 6.56888 32.8695H4.29199V105.457C4.29884 142.641 25.322 176.631 58.5999 193.26L88.501 208.203L118.402 193.26C151.68 176.631 172.703 142.641 172.71 105.457V32.8695H170.973ZM130.606 152.096C130.606 159.843 124.321 166.123 116.571 166.123H60.4313C52.6807 166.123 46.3965 159.843 46.3965 152.096V95.9896C46.3965 88.2417 52.6807 81.9629 60.4313 81.9629H63.94V64.4295C63.94 50.872 74.9356 39.8828 88.501 39.8828C102.065 39.8828 113.062 50.872 113.062 64.4295V81.9629H116.571C124.321 81.9629 130.606 88.2417 130.606 95.9896V152.096Z" fill="#17CA9B"/>
<path d="M113.061 64.4331C113.061 50.8756 102.064 39.8864 88.5004 39.8864C74.935 39.8864 63.9395 50.8756 63.9395 64.4331V81.9665H113.061V64.4331Z" fill="#17CA9B"/>
<path d="M170.972 29.3645C145.339 29.3884 120.274 21.8049 98.9598 7.57276L88.5005 0.60907L78.1679 7.49914C56.9735 21.6799 32.0596 29.2857 6.55463 29.3645L0.782733 29.3816V105.458C0.661093 144.008 22.474 179.276 57.03 196.401L88.5005 212.124L119.969 196.401C154.527 179.276 176.34 144.008 176.218 105.458V29.3645H170.972ZM169.201 105.458C169.322 141.355 149.012 174.2 116.834 190.144L88.5005 204.284L60.167 190.127C27.9941 174.184 7.68536 141.349 7.80015 105.458V36.3778C34.268 36.0576 60.071 28.0512 82.0656 13.331L88.5005 9.02474L95.069 13.4081C117.033 28.0769 142.786 36.0576 169.201 36.3778V105.458Z" fill="#17CA9B"/>
<path d="M60.4332 64.428V78.4547C50.7483 78.465 42.9016 86.3088 42.8896 95.9881V152.095C42.9016 161.772 50.7483 169.616 60.4332 169.628H116.573C126.257 169.616 134.104 161.772 134.116 152.095V95.9881C134.104 86.3088 126.257 78.465 116.573 78.4547V64.428C116.573 48.9339 104.006 36.3746 88.5029 36.3746C72.9998 36.3746 60.4332 48.9339 60.4332 64.428ZM127.099 95.9881V152.095C127.099 157.904 122.386 162.615 116.573 162.615H60.4332C54.6202 162.615 49.9071 157.904 49.9071 152.095V95.9881C49.9071 90.1767 54.6202 85.468 60.4332 85.468H116.573C122.386 85.468 127.099 90.1767 127.099 95.9881ZM109.555 64.428V78.4547H67.4506V64.428C67.4506 52.807 76.8751 43.388 88.5029 43.388C100.129 43.388 109.555 52.807 109.555 64.428Z" fill="#FCD876"/>
<g clip-path="url(#clip0)">
<path d="M89.9592 127.13C96.9955 127.13 102.72 121.146 102.72 113.792C102.72 106.438 96.9955 100.456 89.9592 100.456H77.6341V131.531H74.4414V134.832H77.6341V148.868H80.9368V134.832H92.1612V131.531H80.9368V127.13H89.9592ZM80.9368 103.757H89.9593C95.1745 103.757 99.4173 108.258 99.4173 113.792C99.4173 119.326 95.1745 123.829 89.9593 123.829H80.9368V103.757Z" fill="white"/>
</g>
<defs>
<clipPath id="clip0">
<rect width="48.4402" height="48.4121" fill="white" transform="translate(64.3594 100.457)"/>
</clipPath>
</defs>
</svg>
