<svg width="12" height="15" viewBox="0 0 12 15" fill="none" xmlns="http://www.w3.org/2000/svg">
<path d="M10.8939 5.61015H10.3369V4.19279C10.3369 1.88098 8.22311 0 5.625 0C3.02689 0 0.913106 1.88098 0.913106 4.19279V5.61015H0.356125C0.159544 5.61015 0 5.75212 0 5.92705V14.6831C0 14.858 0.159544 15 0.356125 15H10.8939C11.0905 15 11.25 14.858 11.25 14.6831V5.92705C11.25 5.75212 11.0906 5.61015 10.8939 5.61015ZM5.625 1.77165C7.12536 1.77165 8.34598 2.85768 8.34598 4.19279V5.61015H2.90402V4.19279C2.90402 2.85784 4.12464 1.77165 5.625 1.77165Z" fill="black"/>
</svg>
