<svg width="16" height="18" viewBox="0 0 16 18" fill="none" xmlns="http://www.w3.org/2000/svg">
<path d="M7.39609 8.67032C8.58723 8.67032 9.61866 8.2431 10.4614 7.40021C11.3042 6.55746 11.7314 5.5263 11.7314 4.33502C11.7314 3.14415 11.3042 2.11286 10.4613 1.26983C9.61839 0.427213 8.58709 0 7.39609 0C6.20481 0 5.17365 0.427213 4.33089 1.26997C3.48814 2.11272 3.06079 3.14402 3.06079 4.33502C3.06079 5.5263 3.48814 6.5576 4.33103 7.40035C5.17392 8.24297 6.20522 8.67032 7.39609 8.67032Z" fill="black"/>
<path d="M14.9805 13.8413C14.9562 13.4905 14.907 13.108 14.8346 12.7039C14.7616 12.2969 14.6675 11.9121 14.5549 11.5605C14.4386 11.197 14.2804 10.838 14.0848 10.494C13.8819 10.137 13.6435 9.82606 13.376 9.57023C13.0962 9.30259 12.7538 9.0874 12.3577 8.93044C11.9631 8.7743 11.5257 8.69521 11.0578 8.69521C10.8741 8.69521 10.6964 8.7706 10.3532 8.99402C10.142 9.13176 9.89496 9.29105 9.61922 9.46724C9.38344 9.61747 9.06402 9.75822 8.66949 9.88566C8.28457 10.0102 7.89375 10.0734 7.50801 10.0734C7.12227 10.0734 6.73159 10.0102 6.34626 9.88566C5.95214 9.75836 5.63273 9.61761 5.39722 9.46737C5.12408 9.29284 4.8769 9.13354 4.66254 8.99388C4.31978 8.77046 4.14194 8.69507 3.95821 8.69507C3.49021 8.69507 3.05297 8.7743 2.65844 8.93058C2.26268 9.08726 1.92005 9.30245 1.64005 9.57037C1.37268 9.82634 1.13415 10.1371 0.931464 10.494C0.736053 10.838 0.577856 11.1968 0.461406 11.5606C0.348938 11.9123 0.254872 12.2969 0.181816 12.7039C0.109447 13.1074 0.0602849 13.4901 0.0359787 13.8417C0.0120844 14.1861 0 14.5435 0 14.9046C0 15.8441 0.298678 16.6048 0.887658 17.1657C1.46936 17.7193 2.23906 18.0001 3.17505 18.0001H11.8418C12.7778 18.0001 13.5472 17.7194 14.1291 17.1657C14.7182 16.6052 15.0168 15.8444 15.0168 14.9044C15.0167 14.5417 15.0045 14.184 14.9805 13.8413Z" fill="black"/>
</svg>
