<svg width="71" height="70" viewBox="0 0 71 70" fill="none" xmlns="http://www.w3.org/2000/svg">
<path d="M40.7637 27.498C40.7637 30.4052 38.4071 32.7617 35.5 32.7617C32.5929 32.7617 30.2363 30.4052 30.2363 27.498C30.2363 24.5909 32.5929 22.2344 35.5 22.2344C38.4071 22.2344 40.7637 24.5909 40.7637 27.498Z" fill="url(#paint0_linear)"/>
<path d="M47.8096 18.1834C47.5566 17.4977 47.1529 16.8771 46.6284 16.3677C46.119 15.8432 45.4988 15.4395 44.8127 15.1865C44.2563 14.9704 43.4204 14.7132 41.8808 14.6431C40.2154 14.5671 39.716 14.5508 35.4997 14.5508C31.283 14.5508 30.7837 14.5667 29.1186 14.6427C27.579 14.7132 26.7427 14.9704 26.1868 15.1865C25.5007 15.4395 24.8801 15.8432 24.3711 16.3677C23.8465 16.8771 23.4429 17.4973 23.1894 18.1834C22.9733 18.7398 22.7161 19.5761 22.646 21.1157C22.5701 22.7807 22.5537 23.2801 22.5537 27.4968C22.5537 31.7131 22.5701 32.2124 22.646 33.8779C22.7161 35.4175 22.9733 36.2534 23.1894 36.8098C23.4429 37.4958 23.8461 38.116 24.3707 38.6255C24.8801 39.15 25.5003 39.5536 26.1863 39.8067C26.7427 40.0232 27.579 40.2804 29.1186 40.3505C30.7837 40.4264 31.2826 40.4424 35.4993 40.4424C39.7165 40.4424 40.2158 40.4264 41.8804 40.3505C43.42 40.2804 44.2563 40.0232 44.8127 39.8067C46.1899 39.2754 47.2784 38.187 47.8096 36.8098C48.0257 36.2534 48.2829 35.4175 48.3534 33.8779C48.4294 32.2124 48.4453 31.7131 48.4453 27.4968C48.4453 23.2801 48.4294 22.7807 48.3534 21.1157C48.2833 19.5761 48.0261 18.7398 47.8096 18.1834ZM35.4997 35.605C31.0212 35.605 27.3906 31.9749 27.3906 27.4964C27.3906 23.0178 31.0212 19.3877 35.4997 19.3877C39.9779 19.3877 43.6084 23.0178 43.6084 27.4964C43.6084 31.9749 39.9779 35.605 35.4997 35.605ZM43.929 20.9621C42.8825 20.9621 42.034 20.1136 42.034 19.0671C42.034 18.0206 42.8825 17.1721 43.929 17.1721C44.9755 17.1721 45.824 18.0206 45.824 19.0671C45.8236 20.1136 44.9755 20.9621 43.929 20.9621Z" fill="url(#paint1_linear)"/>
<g filter="url(#filter0_d)">
<path d="M35.5 0C20.3145 0 8 12.3145 8 27.5C8 42.6855 20.3145 55 35.5 55C50.6855 55 63 42.6855 63 27.5C63 12.3145 50.6855 0 35.5 0ZM51.1958 34.0104C51.1194 35.6913 50.8521 36.839 50.4619 37.8436C49.6415 39.9647 47.9647 41.6415 45.8436 42.4619C44.8394 42.8521 43.6913 43.119 42.0108 43.1958C40.3269 43.2726 39.7889 43.291 35.5004 43.291C31.2115 43.291 30.674 43.2726 28.9896 43.1958C27.3091 43.119 26.161 42.8521 25.1569 42.4619C24.1028 42.0653 23.1486 41.4439 22.3597 40.6403C21.5566 39.8518 20.9351 38.8972 20.5386 37.8436C20.1483 36.8394 19.881 35.6913 19.8047 34.0108C19.727 32.3264 19.709 31.7885 19.709 27.5C19.709 23.2115 19.727 22.6736 19.8042 20.9896C19.8806 19.3087 20.1475 18.161 20.5377 17.1564C20.9343 16.1028 21.5561 15.1482 22.3597 14.3597C23.1482 13.5561 24.1028 12.9347 25.1564 12.5381C26.161 12.1479 27.3087 11.881 28.9896 11.8042C30.6736 11.7274 31.2115 11.709 35.5 11.709C39.7885 11.709 40.3264 11.7274 42.0104 11.8047C43.6913 11.881 44.839 12.1479 45.8436 12.5377C46.8972 12.9343 47.8518 13.5561 48.6407 14.3597C49.4439 15.1486 50.0657 16.1028 50.4619 17.1564C50.8525 18.161 51.1194 19.3087 51.1962 20.9896C51.273 22.6736 51.291 23.2115 51.291 27.5C51.291 31.7885 51.273 32.3264 51.1958 34.0104Z" fill="url(#paint2_linear)"/>
</g>
<defs>
<filter id="filter0_d" x="0.666667" y="0" width="69.6667" height="69.6667" filterUnits="userSpaceOnUse" color-interpolation-filters="sRGB">
<feFlood flood-opacity="0" result="BackgroundImageFix"/>
<feColorMatrix in="SourceAlpha" type="matrix" values="0 0 0 0 0 0 0 0 0 0 0 0 0 0 0 0 0 0 127 0"/>
<feOffset dy="7.33333"/>
<feGaussianBlur stdDeviation="3.66667"/>
<feColorMatrix type="matrix" values="0 0 0 0 0 0 0 0 0 0 0 0 0 0 0 0 0 0 0.25 0"/>
<feBlend mode="normal" in2="BackgroundImageFix" result="effect1_dropShadow"/>
<feBlend mode="normal" in="SourceGraphic" in2="effect1_dropShadow" result="shape"/>
</filter>
<linearGradient id="paint0_linear" x1="35.5" y1="91.5191" x2="35.5" y2="7.49301" gradientUnits="userSpaceOnUse">
<stop offset="0.635355" stop-color="#F09F31"/>
<stop offset="0.739521" stop-color="#E53C3D"/>
<stop offset="0.859313" stop-color="#E13593"/>
<stop offset="1" stop-color="#8C33ED"/>
</linearGradient>
<linearGradient id="paint1_linear" x1="35.4995" y1="184.954" x2="35.4995" y2="-21.705" gradientUnits="userSpaceOnUse">
<stop offset="0.635355" stop-color="#F09F31"/>
<stop offset="0.739521" stop-color="#E53C3D"/>
<stop offset="0.859313" stop-color="#E13593"/>
<stop offset="1" stop-color="#8C33ED"/>
</linearGradient>
<linearGradient id="paint2_linear" x1="35.5" y1="361.977" x2="35.5" y2="-77.0161" gradientUnits="userSpaceOnUse">
<stop offset="0.635355" stop-color="#F09F31"/>
<stop offset="0.739521" stop-color="#E53C3D"/>
<stop offset="0.859313" stop-color="#E13593"/>
<stop offset="1" stop-color="#8C33ED"/>
</linearGradient>
</defs>
</svg>
