<svg width="449" height="297" viewBox="0 0 449 297" fill="none" xmlns="http://www.w3.org/2000/svg">
<g filter="url(#filter0_d)">
<rect x="8" y="2.08582" width="433" height="279.996" rx="30.6007" fill="#2C2C2C"/>
<path d="M8 17.3004C8 8.85022 14.8502 2 23.3004 2H87.5618L79.6911 24.1797C70.7327 49.4241 51.1953 69.4966 26.202 79.1336L8 86.1519V17.3004Z" fill="#17CA9B"/>
<path d="M8 17.3003C8 8.85019 14.8502 2 23.3004 2H105.922L93.111 37.7328C84.0686 62.9535 64.4594 82.9653 39.4276 92.5184L8 104.512V17.3003Z" fill="#089156"/>
<path d="M441 273.06C441 278.472 436.613 282.859 431.201 282.859L353.788 282.859L368.747 241.214C374.548 225.064 387.115 212.255 403.15 206.146L441 191.728L441 273.06Z" fill="#FFBC37" fill-opacity="0.8"/>
<path d="M441 273.06C441 278.472 436.613 282.859 431.201 282.859L370.446 282.859L380.886 253.501C386.634 237.336 399.156 224.488 415.168 218.327L441 208.386L441 273.06Z" fill="#FFBC37"/>
</g>
<g filter="url(#filter1_d)">
<circle cx="79.655" cy="220.267" r="32.6257" fill="#0FDAB3"/>
</g>
<g filter="url(#filter2_d)">
<path d="M326.253 190.7L401.745 206.86L350.004 264.158L326.253 190.7Z" fill="#E9E9E9"/>
</g>
<g filter="url(#filter3_d)">
<path d="M76.119 12.3099L77.5408 50.4869L43.7677 32.6297L76.119 12.3099Z" fill="#AFB1B1"/>
</g>
<defs>
<filter id="filter0_d" x="0" y="0" width="449" height="296.859" filterUnits="userSpaceOnUse" color-interpolation-filters="sRGB">
<feFlood flood-opacity="0" result="BackgroundImageFix"/>
<feColorMatrix in="SourceAlpha" type="matrix" values="0 0 0 0 0 0 0 0 0 0 0 0 0 0 0 0 0 0 127 0"/>
<feOffset dy="6"/>
<feGaussianBlur stdDeviation="4"/>
<feColorMatrix type="matrix" values="0 0 0 0 0 0 0 0 0 0 0 0 0 0 0 0 0 0 0.25 0"/>
<feBlend mode="normal" in2="BackgroundImageFix" result="effect1_dropShadow"/>
<feBlend mode="normal" in="SourceGraphic" in2="effect1_dropShadow" result="shape"/>
</filter>
<filter id="filter1_d" x="40.9092" y="187.641" width="77.4916" height="77.4916" filterUnits="userSpaceOnUse" color-interpolation-filters="sRGB">
<feFlood flood-opacity="0" result="BackgroundImageFix"/>
<feColorMatrix in="SourceAlpha" type="matrix" values="0 0 0 0 0 0 0 0 0 0 0 0 0 0 0 0 0 0 127 0"/>
<feOffset dy="6.12014"/>
<feGaussianBlur stdDeviation="3.06007"/>
<feColorMatrix type="matrix" values="0 0 0 0 0 0 0 0 0 0 0 0 0 0 0 0 0 0 0.25 0"/>
<feBlend mode="normal" in2="BackgroundImageFix" result="effect1_dropShadow"/>
<feBlend mode="normal" in="SourceGraphic" in2="effect1_dropShadow" result="shape"/>
</filter>
<filter id="filter2_d" x="294.262" y="162.051" width="113.604" height="114.348" filterUnits="userSpaceOnUse" color-interpolation-filters="sRGB">
<feFlood flood-opacity="0" result="BackgroundImageFix"/>
<feColorMatrix in="SourceAlpha" type="matrix" values="0 0 0 0 0 0 0 0 0 0 0 0 0 0 0 0 0 0 127 0"/>
<feOffset dy="6.12014"/>
<feGaussianBlur stdDeviation="3.06007"/>
<feColorMatrix type="matrix" values="0 0 0 0 0 0 0 0 0 0 0 0 0 0 0 0 0 0 0.25 0"/>
<feBlend mode="normal" in2="BackgroundImageFix" result="effect1_dropShadow"/>
<feBlend mode="normal" in="SourceGraphic" in2="effect1_dropShadow" result="shape"/>
</filter>
<filter id="filter3_d" x="37.6474" y="3.38123" width="61.4782" height="59.3459" filterUnits="userSpaceOnUse" color-interpolation-filters="sRGB">
<feFlood flood-opacity="0" result="BackgroundImageFix"/>
<feColorMatrix in="SourceAlpha" type="matrix" values="0 0 0 0 0 0 0 0 0 0 0 0 0 0 0 0 0 0 127 0"/>
<feOffset dy="6.12014"/>
<feGaussianBlur stdDeviation="3.06007"/>
<feColorMatrix type="matrix" values="0 0 0 0 0 0 0 0 0 0 0 0 0 0 0 0 0 0 0.25 0"/>
<feBlend mode="normal" in2="BackgroundImageFix" result="effect1_dropShadow"/>
<feBlend mode="normal" in="SourceGraphic" in2="effect1_dropShadow" result="shape"/>
</filter>
</defs>
</svg>
