<svg width="47" height="47" viewBox="0 0 47 47" fill="none" xmlns="http://www.w3.org/2000/svg">
<path d="M27.6671 14.1306H20.9005C20.3669 14.1306 19.9338 14.5637 19.9338 15.0973V27.6639H15.1005C14.5669 27.6639 14.1338 28.097 14.1338 28.6306C14.1338 29.1642 14.5669 29.5973 15.1005 29.5973H19.9338V32.4973C19.9338 33.0309 20.3669 33.4639 20.9005 33.4639C21.4341 33.4639 21.8671 33.0309 21.8671 32.4973V29.5973H26.7004C27.234 29.5973 27.6671 29.1642 27.6671 28.6306C27.6671 28.097 27.234 27.6639 26.7004 27.6639H21.8671V25.7306H27.6671C30.8648 25.7306 33.4671 23.1283 33.4671 19.9306C33.4671 16.7329 30.8648 14.1306 27.6671 14.1306ZM27.6671 23.7973H21.8671V16.0639H27.6671C29.7996 16.0639 31.5338 17.7981 31.5338 19.9306C31.5338 22.0631 29.7996 23.7973 27.6671 23.7973Z" fill="black"/>
<path d="M23.8004 2.53101C12.0747 2.53101 2.53369 12.072 2.53369 23.7977C2.53369 35.5233 12.0747 45.0643 23.8004 45.0643C35.526 45.0643 45.067 35.5233 45.067 23.7977C45.067 12.072 35.526 2.53101 23.8004 2.53101ZM23.8004 43.131C13.14 43.131 4.46702 34.4581 4.46702 23.7977C4.46702 13.1373 13.14 4.46434 23.8004 4.46434C34.4608 4.46434 43.1337 13.1373 43.1337 23.7977C43.1337 34.4581 34.4608 43.131 23.8004 43.131Z" fill="black"/>
</svg>
