<svg width="33" height="33" viewBox="0 0 33 33" fill="none" xmlns="http://www.w3.org/2000/svg">
<g clip-path="url(#clip0)">
<path d="M23.2993 0.133301H9.01301C7.82278 0.133301 6.84863 1.10654 6.84863 2.29767V30.0125C6.84863 31.2036 7.82278 32.1777 9.01301 32.1777H23.2993C24.4896 32.1777 25.4637 31.2054 25.4637 30.0134V2.29767C25.4637 1.10654 24.4896 0.133301 23.2993 0.133301ZM13.8709 1.69341H18.4414C18.5861 1.69341 18.7032 1.8106 18.7032 1.95617C18.7032 2.10083 18.5861 2.21802 18.4414 2.21802H13.8709C13.7263 2.21802 13.6091 2.10083 13.6091 1.95617C13.6091 1.8106 13.7263 1.69341 13.8709 1.69341ZM16.1562 31.0956C15.5583 31.0956 15.074 30.6112 15.074 30.0125C15.074 29.4137 15.5583 28.9303 16.1562 28.9303C16.754 28.9303 17.2384 29.4137 17.2384 30.0125C17.2384 30.6112 16.754 31.0956 16.1562 31.0956ZM23.9576 28.1722H8.35472V3.56572H23.9576V28.1722Z" fill="black"/>
</g>
<defs>
<clipPath id="clip0">
<rect width="32.0444" height="32.0444" fill="white" transform="translate(0.133301 0.133301)"/>
</clipPath>
</defs>
</svg>
