<svg width="18" height="18" viewBox="0 0 18 18" fill="none" xmlns="http://www.w3.org/2000/svg">
<circle cx="9" cy="9" r="8.5" stroke="white" stroke-opacity="0.7"/>
<path d="M8.31641 9.98145C8.31641 9.52572 8.37174 9.16276 8.48242 8.89258C8.5931 8.6224 8.79492 8.3571 9.08789 8.09668C9.38411 7.83301 9.58105 7.61979 9.67871 7.45703C9.77637 7.29102 9.8252 7.11686 9.8252 6.93457C9.8252 6.38444 9.57129 6.10938 9.06348 6.10938C8.82259 6.10938 8.62891 6.18424 8.48242 6.33398C8.33919 6.48047 8.26432 6.68392 8.25781 6.94434H6.8418C6.84831 6.32259 7.0485 5.83594 7.44238 5.48438C7.83952 5.13281 8.37988 4.95703 9.06348 4.95703C9.75358 4.95703 10.2891 5.12467 10.6699 5.45996C11.0508 5.79199 11.2412 6.26237 11.2412 6.87109C11.2412 7.14779 11.1794 7.40983 11.0557 7.65723C10.932 7.90137 10.7155 8.17318 10.4062 8.47266L10.0107 8.84863C9.76335 9.08626 9.62174 9.36458 9.58594 9.68359L9.56641 9.98145H8.31641ZM8.1748 11.4805C8.1748 11.2624 8.24805 11.0833 8.39453 10.9434C8.54427 10.8001 8.7347 10.7285 8.96582 10.7285C9.19694 10.7285 9.38574 10.8001 9.53223 10.9434C9.68197 11.0833 9.75684 11.2624 9.75684 11.4805C9.75684 11.6953 9.68359 11.8727 9.53711 12.0127C9.39388 12.1527 9.20345 12.2227 8.96582 12.2227C8.72819 12.2227 8.53613 12.1527 8.38965 12.0127C8.24642 11.8727 8.1748 11.6953 8.1748 11.4805Z" fill="white" fill-opacity="0.7"/>
</svg>
