<svg id="Слой_2" data-name="Слой 2" xmlns="http://www.w3.org/2000/svg" viewBox="0 0 1617.3 295.22"><path d="M1187.68,725,1039.12,551v156.8H999.29V443l157,183.52,1.36-.53V469.79h39.47c.17,1.74.47,3.32.47,4.89q0,124.23,0,248.48C1197.64,723.77,1191,725,1187.68,725Z" transform="translate(-173.7 -443.04)"/><path d="M762,725" transform="translate(-173.7 -443.04)"/><path d="M1302.87,568.83h110.71v7.46c0,34.44-.1,68.88.13,103.31,0,4.75-1.64,7.2-5.47,9.77-39.33,26.41-104.83,26.07-146.79-10.6-32.18-28.12-47-62.95-41.86-105.52,4.59-38.33,25.19-67,57.62-86.27,41.7-24.71,84.82-24.27,127.69-1.74,3.95,2.07,7.82,4.29,12.1,6.65l-18.67,34.88c-7.19-3.67-13.89-7.56-21-10.6-44.93-19.27-96.45.15-114,45.09-16.14,41.3,7,87.71,50.26,102.17a86.67,86.67,0,0,0,55,.48c1.92-.61,4.75-2.76,4.78-4.25.34-16.77.22-33.56.22-51h-70.72Z" transform="translate(-173.7 -443.04)"/><path d="M722.05,708.22c-17.07,0-32.42.14-47.75-.19-1.89,0-4.16-2.29-5.51-4.08q-32.85-43.37-65.4-87c-3.11-4.18-6.31-6.12-12.15-4.41v95.1h-40.1V469.34c3.62,0,6.84,0,10.06,0,19.46.29,39-.42,58.36,1.15,27.85,2.26,52.52,12.7,71.21,34.34,18,20.79,18.07,49.71.79,71.13-9.9,12.27-22.56,20.7-37.1,26.49-2.83,1.13-5.68,2.23-9.32,3.66C670.63,640,695.81,673.39,722.05,708.22ZM591.34,509.92v61.59c17.47.68,34.48.65,50.18-7a72.56,72.56,0,0,0,18.41-12.79c6.62-6.44,6.33-15.23.09-22.08a52.82,52.82,0,0,0-11.86-9.54C630.7,509.62,611.38,509.1,591.34,509.92Z" transform="translate(-173.7 -443.04)"/><path d="M1714.55,606.15,1791,707.61c-2.51.28-4.16.61-5.81.61-12.91,0-25.82-.13-38.73.12-4,.08-6.27-1.44-8.57-4.52-21.57-28.89-43.37-57.61-64.9-86.53-3.19-4.28-6.44-6.61-12.55-4.55v95h-39.69V470.29c.34-.26.67-.72,1-.72,26,.74,52.08.05,77.84,2.72,24.06,2.48,44.84,14.07,60.82,32.77,17.51,20.47,17.82,49,1.17,70.15-9.88,12.57-22.64,21.21-37.36,27.11Zm-53.93-34.79c7.92,0,15.28.38,22.6-.08,14.79-.94,28.68-5.06,40.66-14.06,13.42-10.07,13.48-22.9.12-33-18.84-14.23-40.67-15.4-63.38-14.23Z" transform="translate(-173.7 -443.04)"/><path d="M1437.77,469.67h161.76v27.52c0,12.21,0,12.21-12.31,12.21H1478V570h80.42v40.14h-80.56v58h121.24V707.8H1437.77Z" transform="translate(-173.7 -443.04)"/><path d="M860.3,445.94,978.37,708.25c-11.59,0-22-.73-32.27.22-9.08.84-13.33-2.41-16.62-10.76-6.6-16.75-14.59-33-21.74-49.5-1.77-4.1-3.91-5.83-8.62-5.79q-38.72.38-77.45,0c-4.31,0-6.56,1.27-8.31,5.27-8.14,18.57-16.71,36.95-24.86,55.51-1.65,3.75-3.64,5.22-7.79,5.13-12.43-.27-24.86-.1-38.48-.1C781.67,620.62,820.61,534.1,860.3,445.94Zm26.56,156.12c-8.9-19.63-17.35-38.3-26.57-58.65L834,602.06Z" transform="translate(-173.7 -443.04)"/><path d="M173.7,655.79l34-21.1c1.82,2.66,3.62,4.86,5,7.31,12.54,22.79,33.56,27.73,57.11,27a47.44,47.44,0,0,0,27.05-8.92c14-10.23,14.95-25.4,2-37a54.26,54.26,0,0,0-31-13.69C247,607.18,227.29,602,210.19,589c-24.14-18.42-33.64-42.63-26.48-69.44,4.81-18,17.32-29.74,32.9-38.73,39.07-22.56,95.84-13.47,124.25,20.35,6,7.13,10.38,15.6,15.83,24l-34.87,19.42c-1.48-2.24-3.15-4.08-4-6.24-10.51-25.61-40.52-31.77-62.2-29.25a47.78,47.78,0,0,0-25.18,10.44c-11.27,9.2-12.31,21.46-2.45,32.07a51.15,51.15,0,0,0,31.66,16.15c18,2.32,35.74,5.1,51.45,15,14.72,9.29,26.86,21,33.09,37.64,9.84,26.19.31,54.56-23.52,71.54C282.15,719.3,221.8,713.33,190,678.52,183.8,671.81,179.24,663.64,173.7,655.79Z" transform="translate(-173.7 -443.04)"/><path d="M433.33,509.77H377.18v-40H529.83v39.89H473.62V707.77H433.33Z" transform="translate(-173.7 -443.04)"/><polygon points="950.04 205.19 949.3 187.97 940.25 193.22 950.04 205.19"/><polygon points="825.6 0 825.6 20.01 838.57 15.16 825.6 0"/><polygon points="1024.94 295.22 1023.3 251.97 1012.3 279.96 1024.94 295.22"/></svg>