<svg width="155" height="155" viewBox="0 0 155 155" fill="none" xmlns="http://www.w3.org/2000/svg">
<g filter="url(#filter0_f)">
<path fill-rule="evenodd" clip-rule="evenodd" d="M98.0976 47.3359C98.9949 47.9857 99.204 49.2459 98.5646 50.1507L79.4808 77.157L105.556 96.04C106.454 96.6899 106.663 97.9501 106.023 98.8549C105.384 99.7597 104.138 99.9664 103.241 99.3166L77.1655 80.4335L58.5859 106.726C57.9465 107.631 56.7008 107.838 55.8035 107.188C54.9062 106.538 54.697 105.278 55.3364 104.373L73.916 78.0803L47.1327 58.6848C46.2354 58.035 46.0263 56.7747 46.6657 55.8699C47.305 54.9651 48.5508 54.7584 49.4481 55.4082L76.2313 74.8038L95.3152 47.7975C95.9545 46.8928 97.2003 46.686 98.0976 47.3359Z" fill="#ED4A57"/>
<path d="M142.363 66.9386C148.33 102.898 124.016 136.885 88.0571 142.852C52.098 148.819 18.1104 124.505 12.1437 88.5458C6.17704 52.5867 30.4907 18.5991 66.4499 12.6324C102.409 6.66573 136.397 30.9794 142.363 66.9386ZM17.1506 87.715C22.6585 120.909 54.0324 143.353 87.2263 137.845C120.42 132.337 142.864 100.963 137.356 67.7693C131.848 34.5755 100.475 12.1315 67.2806 17.6393C34.0868 23.1472 11.6428 54.5211 17.1506 87.715Z" fill="#ED4A57"/>
</g>
<defs>
<filter id="filter0_f" x="0.150726" y="0.639496" width="154.205" height="154.205" filterUnits="userSpaceOnUse" color-interpolation-filters="sRGB">
<feFlood flood-opacity="0" result="BackgroundImageFix"/>
<feBlend mode="normal" in="SourceGraphic" in2="BackgroundImageFix" result="shape"/>
<feGaussianBlur stdDeviation="5.54622" result="effect1_foregroundBlur"/>
</filter>
</defs>
</svg>
