<svg width="41" height="41" viewBox="0 0 41 41" fill="none" xmlns="http://www.w3.org/2000/svg">
<g filter="url(#filter0_f)">
<path fill-rule="evenodd" clip-rule="evenodd" d="M27.2716 13.4516C27.4781 13.6605 27.4781 13.9993 27.2716 14.2082L21.1076 20.444L27.1087 26.5151C27.3152 26.7241 27.3152 27.0628 27.1087 27.2717C26.9022 27.4806 26.5674 27.4806 26.3608 27.2717L20.3597 21.2006L14.3586 27.2717C14.1521 27.4806 13.8172 27.4806 13.6107 27.2717C13.4042 27.0628 13.4042 26.7241 13.6107 26.5151L19.6119 20.444L13.4479 14.2082C13.2413 13.9993 13.2413 13.6605 13.4479 13.4516C13.6544 13.2427 13.9892 13.2427 14.1957 13.4516L20.3597 19.6875L26.5237 13.4516C26.7302 13.2427 27.0651 13.2427 27.2716 13.4516Z" fill="#17CA9B"/>
<path d="M38 20.5C38 30.165 30.165 38 20.5 38C10.835 38 3 30.165 3 20.5C3 10.835 10.835 3 20.5 3C30.165 3 38 10.835 38 20.5ZM4.34574 20.5C4.34574 29.4217 11.5782 36.6543 20.5 36.6543C29.4217 36.6543 36.6543 29.4217 36.6543 20.5C36.6543 11.5782 29.4217 4.34574 20.5 4.34574C11.5782 4.34574 4.34574 11.5782 4.34574 20.5Z" fill="#17CA9B"/>
</g>
<defs>
<filter id="filter0_f" x="0" y="0" width="41" height="41" filterUnits="userSpaceOnUse" color-interpolation-filters="sRGB">
<feFlood flood-opacity="0" result="BackgroundImageFix"/>
<feBlend mode="normal" in="SourceGraphic" in2="BackgroundImageFix" result="shape"/>
<feGaussianBlur stdDeviation="1.5" result="effect1_foregroundBlur"/>
</filter>
</defs>
</svg>
