<svg width="18" height="18" viewBox="0 0 18 18" fill="none" xmlns="http://www.w3.org/2000/svg">
<path d="M17.2906 8.8651C17.2906 13.4591 13.5665 17.1832 8.97252 17.1832C4.37842 17.1832 0.654297 13.4591 0.654297 8.8651C0.654297 4.271 4.37842 0.546875 8.97252 0.546875C13.5665 0.546875 17.2906 4.271 17.2906 8.8651Z" fill="#FFC107"/>
<path d="M7.65016 12.6449C7.33709 12.6449 7.08301 12.3909 7.08301 12.0778V5.65016C7.08301 5.33709 7.33709 5.08301 7.65016 5.08301H10.4859C11.7366 5.08301 12.7545 6.10086 12.7545 7.3516C12.7545 8.60235 11.7366 9.62019 10.4859 9.62019H8.2173V12.0778C8.2173 12.3909 7.96322 12.6449 7.65016 12.6449ZM8.2173 8.4859H10.4859C11.1113 8.4859 11.6202 7.97704 11.6202 7.3516C11.6202 6.72616 11.1113 6.2173 10.4859 6.2173H8.2173V8.4859Z" fill="#FAFAFA"/>
<path d="M9.91857 11.5112H5.75953C5.44646 11.5112 5.19238 11.2572 5.19238 10.9441C5.19238 10.631 5.44646 10.377 5.75953 10.377H9.91857C10.2316 10.377 10.4857 10.631 10.4857 10.9441C10.4857 11.2572 10.2316 11.5112 9.91857 11.5112Z" fill="#FAFAFA"/>
</svg>
