<svg width="139" height="144" viewBox="0 0 139 144" fill="none" xmlns="http://www.w3.org/2000/svg">
<path d="M82.9053 21.8363C82.9053 14.3764 76.858 8.3291 69.3981 8.3291C61.9382 8.3291 55.8909 14.3764 55.8909 21.8363V56.8723C55.8909 62.3905 51.2082 66.6687 46.2275 69.0441C38.6369 72.664 33.3897 80.4045 33.3789 89.3724V109.957C33.3789 112.228 34.1517 114.431 35.5702 116.204L50.1841 134.471C50.9638 135.446 51.3885 136.657 51.3885 137.905V138.899C51.3885 141.385 53.4043 143.401 55.8909 143.401C58.3775 143.401 60.3933 141.385 60.3933 138.899V135.565C60.3933 133.785 59.7877 132.059 58.6761 130.67L44.575 113.043C43.1565 111.27 42.3837 109.067 42.3837 106.796V89.3724C42.3837 85.4234 44.0783 81.8702 46.78 79.4004C50.8563 75.674 55.8909 80.3423 55.8909 85.8652V102.88C55.8909 105.366 57.9067 107.382 60.3933 107.382C62.8799 107.382 64.8957 105.366 64.8957 102.88V21.8363C64.8957 19.3496 66.9114 17.3339 69.3981 17.3339C71.8849 17.3339 73.9005 19.3496 73.9005 21.8363V53.6672C73.9005 58.1721 76.9127 62.1209 81.2574 63.3116L121.402 74.3137C122.855 74.7118 124.41 74.363 125.553 73.3829C128.317 71.0141 127.306 66.5189 123.794 65.5619L90.2626 56.4253C85.9089 55.239 82.8891 51.284 82.8916 46.7715L82.9053 21.8363Z" fill="white"/>
<path d="M115.639 68.0055C115.113 70.0964 116.356 72.2242 118.436 72.7922L119.604 73.1112C121.863 73.7281 123.431 75.7804 123.431 78.1224V110.908C123.431 113.071 122.729 115.177 121.431 116.908L111.499 130.15C110.476 131.513 109.923 133.172 109.923 134.877V138.252C109.923 140.739 111.939 142.755 114.426 142.755C116.912 142.755 118.928 140.739 118.928 138.252V137.125C118.928 135.907 119.323 134.722 120.054 133.748L130.41 119.941C131.724 118.188 132.426 116.053 132.409 113.863L132.108 74.8896C132.076 70.7388 129.2 67.1523 125.155 66.2189L120.369 65.1145C118.268 64.6297 116.166 65.9148 115.639 68.0055Z" fill="white"/>
<path d="M21.3517 8.07151C22.2934 7.1298 22.2934 5.60299 21.3517 4.66129L19.8736 3.1832C18.1156 1.42517 15.2652 1.42517 13.5072 3.1832L7.07106 9.61934C3.16582 13.5246 3.16583 19.8562 7.07107 23.7615L13.5072 30.1976C15.2652 31.9557 18.1156 31.9556 19.8736 30.1976L21.3517 28.7195C22.2934 27.7778 22.2934 26.251 21.3517 25.3093C19.8326 23.7902 20.9085 21.1928 23.0568 21.1928H25.4682C27.3516 21.1928 28.8784 19.666 28.8784 17.7826V15.5982C28.8784 13.7148 27.3516 12.188 25.4682 12.188H23.0568C20.9085 12.188 19.8326 9.5906 21.3517 8.07151Z" fill="white"/>
<path d="M37.8838 16.6904C37.8838 19.177 39.8996 21.1928 42.3862 21.1928C44.8728 21.1928 46.8886 19.177 46.8886 16.6904C46.8886 14.2038 44.8728 12.188 42.3862 12.188C39.8996 12.188 37.8838 14.2038 37.8838 16.6904Z" fill="white"/>
<path d="M117.45 25.3093C116.508 26.251 116.508 27.7778 117.45 28.7195L118.928 30.1976C120.686 31.9556 123.537 31.9556 125.295 30.1976L131.731 23.7615C135.636 19.8562 135.636 13.5246 131.731 9.61934L125.295 3.1832C123.537 1.42516 120.686 1.42517 118.928 3.1832L117.45 4.66129C116.508 5.60299 116.508 7.1298 117.45 8.07151C118.969 9.5906 117.893 12.188 115.745 12.188H113.334C111.45 12.188 109.923 13.7148 109.923 15.5982V17.7826C109.923 19.666 111.45 21.1928 113.334 21.1928H115.745C117.893 21.1928 118.969 23.7902 117.45 25.3093Z" fill="white"/>
<path d="M91.9111 16.6904C91.9111 19.177 93.9269 21.1928 96.4135 21.1928C98.9001 21.1928 100.916 19.177 100.916 16.6904C100.916 14.2038 98.9001 12.188 96.4135 12.188C93.9269 12.188 91.9111 14.2038 91.9111 16.6904Z" fill="white"/>
</svg>
