<svg width="51" height="67" viewBox="0 0 51 67" fill="none" xmlns="http://www.w3.org/2000/svg">
<path d="M45.1668 25.8428C44.0536 25.8428 43.0163 26.2315 42.1551 26.8938C41.413 24.4748 39.4007 22.7336 37.0418 22.7336C36.056 22.7336 35.1297 23.0384 34.3335 23.57V7.1873C34.3335 3.75775 31.9041 0.96875 28.9168 0.96875C26.5578 0.96875 24.5455 2.70998 23.8035 5.12893C22.9422 4.46666 21.9049 4.07795 20.7918 4.07795C17.8044 4.07795 15.3751 6.86695 15.3751 10.2965V36.7251L10.668 32.6738C7.87848 30.2703 3.90802 30.5906 1.43535 33.4263C-0.149023 35.2452 -0.149023 38.2021 1.43535 40.021L20.7214 62.1651C23.0235 64.8079 26.0866 66.263 29.3421 66.263H35.6877C43.8994 66.263 50.5835 58.5926 50.5835 49.1622V32.0612C50.5835 28.6318 48.1541 25.8428 45.1668 25.8428ZM47.8752 49.1622C47.8752 56.8763 42.4071 63.1538 35.6877 63.1538H29.3421C26.8097 63.1538 24.4291 62.0221 22.6363 59.9668L3.35019 37.8227C2.82206 37.2164 2.82206 36.2307 3.35019 35.6244C4.18973 34.6637 5.31098 34.1693 6.43769 34.1693C7.35314 34.1693 8.27394 34.4958 9.04581 35.1611L15.9169 41.078C16.3286 41.4324 16.8811 41.4884 17.3361 41.2241C17.7938 40.9599 18.0836 40.4219 18.0836 39.8343V10.2965C18.0836 8.58326 19.2969 7.1873 20.7919 7.1873C22.2869 7.1873 23.5002 8.58341 23.5002 10.2965V33.6159C23.5002 34.474 24.1069 35.1706 24.8544 35.1706C25.6019 35.1706 26.2086 34.474 26.2086 33.6159V7.1873C26.2086 5.47406 27.4219 4.0781 28.9169 4.0781C30.4119 4.0781 31.6252 5.4742 31.6252 7.1873V33.6159C31.6252 34.474 32.2319 35.1706 32.9794 35.1706C33.7269 35.1706 34.3336 34.474 34.3336 33.6159V28.952C34.3336 27.2388 35.5469 25.8428 37.0419 25.8428C38.5369 25.8428 39.7502 27.2389 39.7502 28.952V33.6159C39.7502 34.474 40.3569 35.1706 41.1044 35.1706C41.8519 35.1706 42.4586 34.474 42.4586 33.6159V32.0612C42.4586 30.348 43.6719 28.952 45.1669 28.952C46.6619 28.952 47.8752 30.3481 47.8752 32.0612V49.1622Z" fill="white"/>
</svg>
