<svg width="174" height="163" viewBox="0 0 174 163" fill="none" xmlns="http://www.w3.org/2000/svg">
<path d="M163.309 89.8646L137.805 61.8371C132.758 56.7905 124.537 56.7838 119.443 61.8778C117.829 63.492 116.73 65.4252 116.161 67.4875C111.087 63.6008 103.768 63.9874 99.0942 68.661C97.4866 70.2753 96.3878 72.2085 95.8043 74.2637C90.7307 70.3907 83.4117 70.7704 78.745 75.444C77.1645 77.0246 76.0793 78.91 75.4892 80.9179L63.4695 68.8982C58.4229 63.8516 50.2018 63.845 45.1078 68.9389C40.0546 73.9855 40.0546 82.2066 45.1078 87.2599L91.2868 133.439L63.8968 137.739C56.4964 138.797 50.914 145.228 50.914 152.71C50.914 158.319 55.4789 162.884 61.0886 162.884H125.046C135.011 162.884 144.378 159.004 151.425 151.957L162.095 141.287C169.136 134.253 173.009 124.892 173.009 114.941C173.009 105.649 169.563 96.7426 163.309 89.8646ZM157.299 136.491L146.63 147.161C140.864 152.926 133.199 156.101 125.046 156.101H61.0883C59.2162 156.101 57.6967 154.581 57.6967 152.709C57.6967 148.585 60.7761 145.038 64.907 144.447L98.9241 139.102C100.186 138.905 101.224 138.017 101.624 136.803C102.017 135.596 101.699 134.259 100.796 133.357L49.9032 82.4642C47.4954 80.0563 47.4954 76.1355 49.9373 73.687C51.1445 72.4864 52.7251 71.8826 54.3057 71.8826C55.8862 71.8826 57.4665 72.4864 58.6741 73.6936L92.6098 107.629C93.9325 108.952 96.0829 108.952 97.4056 107.629C98.0634 106.965 98.396 106.097 98.396 105.228C98.396 104.36 98.0637 103.492 97.3989 102.827L83.5411 88.9692C81.1332 86.5613 81.1332 82.6473 83.5818 80.1987C85.983 77.7975 89.9104 77.7975 92.3116 80.1987L106.176 94.0632C107.499 95.3859 109.649 95.3859 110.972 94.0632C111.63 93.3983 111.962 92.5303 111.962 91.662C111.962 90.7936 111.63 89.9256 110.965 89.2608L103.89 82.1859C101.482 79.7781 101.482 75.864 103.931 73.4154C106.332 71.0142 110.26 71.0142 112.661 73.4154L119.769 80.524C119.783 80.5307 119.776 80.5307 119.776 80.5307L119.783 80.5373C119.789 80.544 119.789 80.544 119.789 80.544C119.796 80.5507 119.796 80.5507 119.796 80.5507H119.803C119.809 80.5507 119.809 80.5574 119.809 80.5574C121.139 81.819 123.242 81.792 124.537 80.4896C125.86 79.1669 125.86 77.0166 124.537 75.6939L124.245 75.4023C123.079 74.2358 122.434 72.6822 122.434 71.0339C122.434 69.3857 123.072 67.8391 124.28 66.6318C126.694 64.2306 130.601 64.2373 132.901 66.5164L158.297 94.4288C163.404 100.053 166.226 107.338 166.226 114.941C166.226 123.081 163.058 130.732 157.299 136.491Z" fill="white"/>
<path d="M82.0913 65.5611C77.1534 54.6336 66.2463 47.5654 54.308 47.5654C37.4792 47.5654 23.7842 61.2604 23.7842 78.0892C23.7842 90.0275 30.852 100.935 41.7795 105.88C42.2339 106.083 42.7089 106.178 43.177 106.178C44.4656 106.178 45.7003 105.432 46.27 104.184C47.0366 102.475 46.2767 100.467 44.5744 99.6934C36.0684 95.8474 30.5675 87.3684 30.5675 78.0892C30.5675 64.998 41.2168 54.3484 54.3083 54.3484C63.5875 54.3484 72.0664 59.8493 75.9124 68.3553C76.679 70.0646 78.6936 70.8312 80.3959 70.051C82.105 69.278 82.8646 67.2704 82.0913 65.5611Z" fill="white"/>
<path d="M10.1341 30.1523C11.0975 30.1523 11.8803 29.8873 12.4825 29.3575C13.0846 28.8276 13.3977 28.1231 13.4218 27.2439H18.3173C18.3052 28.5686 17.9439 29.785 17.2334 30.8929C16.5229 31.9888 15.5474 32.8439 14.307 33.4581C13.0786 34.0602 11.7177 34.3613 10.2244 34.3613C7.43047 34.3613 5.22662 33.4761 3.61287 31.7058C1.99912 29.9235 1.19225 27.4667 1.19225 24.3356V23.9923C1.19225 20.9816 1.9931 18.5791 3.59481 16.7847C5.19651 14.9903 7.39434 14.0931 10.1883 14.0931C12.633 14.0931 14.59 14.7916 16.0592 16.1885C17.5405 17.5735 18.2932 19.4221 18.3173 21.7343H13.4218C13.3977 20.7227 13.0846 19.9038 12.4825 19.2775C11.8803 18.6393 11.0855 18.3201 10.098 18.3201C8.88164 18.3201 7.96036 18.7657 7.33413 19.6569C6.71994 20.536 6.41285 21.9691 6.41285 23.9562V24.4981C6.41285 26.5093 6.71994 27.9545 7.33413 28.8336C7.94832 29.7127 8.88164 30.1523 10.1341 30.1523ZM27.4681 34H22.2295V6.25315H27.4681V34ZM37.9558 34H32.7171V14.4544H37.9558V34ZM32.41 9.39635C32.41 8.61356 32.669 7.96926 33.1868 7.46346C33.7167 6.95766 34.4332 6.70476 35.3365 6.70476C36.2276 6.70476 36.9382 6.95766 37.4681 7.46346C37.9979 7.96926 38.2629 8.61356 38.2629 9.39635C38.2629 10.1912 37.9919 10.8415 37.45 11.3473C36.9201 11.8531 36.2156 12.106 35.3365 12.106C34.4573 12.106 33.7468 11.8531 33.2049 11.3473C32.675 10.8415 32.41 10.1912 32.41 9.39635ZM51.0628 30.1523C52.0262 30.1523 52.809 29.8873 53.4111 29.3575C54.0133 28.8276 54.3264 28.1231 54.3505 27.2439H59.2459C59.2339 28.5686 58.8726 29.785 58.1621 30.8929C57.4515 31.9888 56.4761 32.8439 55.2356 33.4581C54.0073 34.0602 52.6464 34.3613 51.1531 34.3613C48.3591 34.3613 46.1553 33.4761 44.5415 31.7058C42.9278 29.9235 42.1209 27.4667 42.1209 24.3356V23.9923C42.1209 20.9816 42.9218 18.5791 44.5235 16.7847C46.1252 14.9903 48.323 14.0931 51.117 14.0931C53.5617 14.0931 55.5187 14.7916 56.9879 16.1885C58.4692 17.5735 59.2218 19.4221 59.2459 21.7343H54.3505C54.3264 20.7227 54.0133 19.9038 53.4111 19.2775C52.809 18.6393 52.0142 18.3201 51.0266 18.3201C49.8103 18.3201 48.889 18.7657 48.2628 19.6569C47.6486 20.536 47.3415 21.9691 47.3415 23.9562V24.4981C47.3415 26.5093 47.6486 27.9545 48.2628 28.8336C48.877 29.7127 49.8103 30.1523 51.0628 30.1523ZM69.9865 26.1601L68.1078 28.0388V34H62.8872V6.25315H68.1078V21.6259L69.1194 20.3253L74.1232 14.4544H80.3916L73.3284 22.6014L81.0057 34H75.0084L69.9865 26.1601Z" fill="white"/>
</svg>
