<svg width="197" height="198" viewBox="0 0 197 198" fill="none" xmlns="http://www.w3.org/2000/svg">
<path d="M196.832 98.7481C196.832 153.024 152.808 197.023 98.4998 197.023C44.1919 197.023 0.167969 153.024 0.167969 98.7481C0.167969 44.4718 44.1919 0.473328 98.4998 0.473328C152.808 0.473328 196.832 44.4718 196.832 98.7481Z" fill="#17CA9B"/>
<path d="M25.7461 134.452C25.7461 136.78 23.8586 138.666 21.5299 138.666C19.2013 138.666 17.3137 136.78 17.3137 134.452C17.3137 132.125 19.2013 130.239 21.5299 130.239C23.8586 130.239 25.7461 132.125 25.7461 134.452ZM127.772 159.221H125.172C118.145 159.221 112.337 164.539 111.569 171.361C111.476 172.181 112.118 172.902 112.945 172.902H118.541C119.191 172.902 119.766 172.456 119.898 171.818C120.4 169.369 122.575 167.521 125.172 167.521H127.772C130.746 167.521 133.156 169.93 133.156 172.902V173.058C133.156 175.086 132.026 176.96 130.206 177.858C127.413 179.235 125.068 181.361 123.428 184.005C121.796 186.637 120.932 189.666 120.932 192.763V194.445C123.76 193.787 126.537 193.001 129.265 192.104C129.499 189.191 131.265 186.613 133.912 185.286C136.173 184.151 138.072 182.417 139.406 180.267C140.751 178.1 141.46 175.608 141.46 173.058V172.902C141.46 165.346 135.333 159.221 127.772 159.221ZM24.0626 90.121H21.4624C14.4359 90.121 8.62778 95.44 7.85956 102.261C7.76653 103.082 8.40871 103.803 9.23545 103.803H14.832C15.4817 103.803 16.0564 103.356 16.1884 102.719C16.6911 100.27 18.8652 98.4211 21.4624 98.4211H24.0626C27.0365 98.4211 29.4462 100.831 29.4462 103.803V103.959C29.4462 105.986 28.3164 107.861 26.4963 108.759C23.704 110.136 21.3589 112.262 19.7189 114.906C18.0865 117.537 17.2222 120.566 17.2222 123.663V125.645C17.2222 126.409 17.8419 127.028 18.6071 127.028H24.1437C24.9074 127.028 25.5286 126.409 25.5286 125.645V123.663C25.5286 120.483 27.3576 117.612 30.2024 116.186C32.4635 115.051 34.3631 113.318 35.6969 111.167C37.0413 109 37.751 106.508 37.751 103.959V103.803C37.751 96.2467 31.6233 90.121 24.0626 90.121Z" fill="#FCD876"/>
<path d="M171.707 136.938C171.707 139.264 169.82 141.152 167.491 141.152C165.162 141.152 163.275 139.264 163.275 136.938C163.275 134.611 165.162 132.724 167.491 132.724C169.82 132.724 171.707 134.611 171.707 136.938ZM170.024 92.6067H167.423C160.397 92.6067 154.589 97.9256 153.82 104.746C153.727 105.567 154.37 106.287 155.196 106.287H160.793C161.443 106.287 162.017 105.84 162.149 105.204C162.652 102.756 164.826 100.907 167.423 100.907H170.024C172.997 100.907 175.407 103.316 175.407 106.287V106.443C175.407 108.47 174.277 110.346 172.457 111.243C169.665 112.62 167.32 114.746 165.68 117.391C164.047 120.023 163.183 123.051 163.183 126.147V128.13C163.183 128.894 163.803 129.514 164.568 129.514H170.105C170.868 129.514 171.49 128.894 171.49 128.13V126.147C171.49 122.968 173.319 120.098 176.163 118.672C178.424 117.537 180.324 115.803 181.658 113.653C183.002 111.486 183.712 108.992 183.712 106.443V106.287C183.712 98.7323 177.584 92.6067 170.024 92.6067Z" fill="#2C3E50"/>
<path d="M73.1483 38.4482V38.6896C73.1483 42.6499 72.044 46.5233 69.9569 49.8898C67.8848 53.2293 64.9335 55.924 61.4195 57.686C57.0022 59.9023 54.1574 64.3605 54.1574 69.3015V72.3816C54.1574 73.5693 53.1956 74.5305 52.0073 74.5305H43.4069C42.2185 74.5305 41.2568 73.5693 41.2568 72.3816V69.3015C41.2568 64.491 42.5966 59.7868 45.1339 55.6976C47.6816 51.5903 51.3246 48.2853 55.6623 46.1469C58.4891 44.7538 60.2461 41.8402 60.2461 38.6896V38.4482C60.2461 33.8311 56.5011 30.0897 51.8828 30.0897H47.8421C43.806 30.0897 40.4285 32.9598 39.6483 36.7657C39.4457 37.7539 38.55 38.4482 37.5417 38.4482H28.8482C27.5639 38.4482 26.5661 37.3295 26.7101 36.0534C26.9562 33.8641 27.5414 31.7662 28.4041 29.8288C32.7764 25.3886 37.5552 21.3728 42.7002 17.8233C44.3446 17.4139 46.0731 17.195 47.8421 17.195H51.8828C63.6266 17.1935 73.1483 26.7097 73.1483 38.4482ZM47.9472 79.518C44.3296 79.518 41.3978 82.4496 41.3978 86.065C41.3978 89.6805 44.3296 92.6106 47.9472 92.6106C51.5647 92.6106 54.498 89.679 54.498 86.0635C54.498 82.4481 51.5647 79.518 47.9472 79.518Z" fill="#C4C4C4"/>
<path d="M171.49 46.1172V46.5506C171.49 53.6255 169.518 60.5429 165.788 66.5562C162.085 72.5229 156.816 77.3365 150.539 80.4825C142.647 84.4413 137.568 92.4055 137.568 101.23V106.732C137.568 108.853 135.849 110.571 133.727 110.571H118.363C116.241 110.571 114.522 108.853 114.522 106.732V101.23C114.522 92.6364 116.916 84.2344 121.448 76.9301C126 69.5928 132.504 63.6905 140.254 59.8711C145.304 57.3819 148.443 52.1784 148.443 46.5506V46.1172C148.443 37.8712 141.754 31.1862 133.502 31.1862H126.285C119.077 31.1862 113.044 36.3146 111.648 43.1121C111.287 44.8771 109.689 46.1172 107.885 46.1172H92.3574C90.0618 46.1172 88.2807 44.1198 88.5373 41.8405C90.6709 22.9131 106.785 8.15302 126.285 8.15302H133.502C154.482 8.15302 171.49 25.1505 171.49 46.1172Z" fill="#E3E3E3"/>
<path d="M134.499 8.16651C114.012 8.69585 97.5071 25.5164 97.5071 46.1172H92.3562C90.0605 46.1172 88.2795 44.1198 88.5376 41.8405C90.6697 22.9131 106.784 8.15302 126.284 8.15302H133.501C133.835 8.15302 134.167 8.15751 134.499 8.16651ZM142.712 31.1862H135.493C135.159 31.1862 134.826 31.2012 134.497 31.2222C142.283 31.735 148.442 38.2056 148.442 46.1172V46.5506C148.442 52.1784 145.303 57.3819 140.253 59.8711C132.503 63.6905 125.999 69.5928 121.446 76.9301C116.915 84.2344 114.52 92.6364 114.52 101.23V106.732C114.52 108.853 116.24 110.571 118.362 110.571H123.73V101.23C123.73 92.6364 126.144 84.4998 130.764 77.2525C137.678 66.4077 156.883 66.4077 157.652 46.5506V46.1172C157.652 37.8712 150.963 31.1862 142.712 31.1862ZM126.473 119.48C120.012 119.48 114.773 124.715 114.773 131.173C114.773 137.631 120.012 142.867 126.473 142.867C132.935 142.867 138.173 137.631 138.173 131.173C138.173 124.715 132.935 119.48 126.473 119.48Z" fill="#DADADA"/>
<path d="M138.175 131.17C138.175 135.9 135.364 139.971 131.322 141.813C127.28 139.971 124.47 135.9 124.47 131.17C124.47 126.441 127.28 122.369 131.322 120.528C135.364 122.369 138.175 126.441 138.175 131.17Z" fill="#E3E3E3"/>
<path d="M105.907 123.358V123.687C105.907 129.075 104.405 134.343 101.565 138.921C98.7469 143.464 94.7333 147.128 89.9544 149.526C83.9437 152.54 80.0771 158.604 80.0771 165.323V169.513C80.0771 171.127 78.7673 172.436 77.1528 172.436H65.4525C63.838 172.436 62.5282 171.128 62.5282 169.513V165.323C62.5282 158.779 64.3512 152.382 67.8022 146.82C71.2681 141.233 76.2211 136.739 82.1222 133.83C85.9678 131.934 88.358 127.972 88.358 123.687V123.358C88.358 117.078 83.264 111.989 76.9818 111.989H71.4857C65.9972 111.989 61.4044 115.894 60.3406 121.07C60.066 122.414 58.8491 123.358 57.4762 123.358H45.6514C43.9034 123.358 42.547 121.836 42.7436 120.101C44.367 105.688 56.6375 94.4499 71.4857 94.4499H76.9818C92.9568 94.4499 105.907 107.393 105.907 123.358Z" fill="#2C3E50"/>
<path d="M80.5393 188.123C80.5393 193.041 76.5496 197.027 71.6298 197.027C66.7099 197.027 62.7217 193.041 62.7217 188.123C62.7217 183.206 66.7099 179.22 71.6298 179.22C76.5511 179.22 80.5393 183.206 80.5393 188.123ZM76.9818 94.4499H71.4857C56.6375 94.4499 44.367 105.688 42.7436 120.101C42.547 121.836 43.9034 123.358 45.6514 123.358H49.5735C49.5735 107.671 62.1411 94.8623 77.741 94.4589C77.4889 94.4529 77.2353 94.4499 76.9818 94.4499ZM83.9948 111.989H78.4987C78.2436 111.989 77.9916 111.999 77.7395 112.016C83.6692 112.406 88.358 117.333 88.358 123.358V123.687C88.358 127.972 85.9678 131.934 82.1222 133.83C76.2211 136.739 71.2681 141.231 67.8022 146.82C64.3527 152.381 62.5282 158.779 62.5282 165.323V169.513C62.5282 171.128 63.838 172.436 65.454 172.436H69.5412V165.323C69.5412 158.781 71.3792 152.585 74.8977 147.066C80.1627 138.808 94.7858 138.808 95.371 123.688V123.358C95.371 117.078 90.277 111.989 83.9948 111.989Z" fill="black"/>
<path d="M80.5366 188.128C80.5366 191.73 78.3955 194.829 75.3181 196.231C72.2407 194.829 70.0996 191.73 70.0996 188.128C70.0996 184.527 72.2407 181.428 75.3181 180.024C78.3955 181.428 80.5366 184.527 80.5366 188.128Z" fill="#020202" fill-opacity="0.7"/>
</svg>
