<svg width="193" height="140" viewBox="0 0 193 140" fill="none" xmlns="http://www.w3.org/2000/svg">
<path d="M4.85547 11.0651C4.85547 7.19299 7.99441 4.05405 11.8665 4.05405H181.17C185.042 4.05405 188.181 7.19299 188.181 11.0651V128.737C188.181 132.609 185.042 135.748 181.17 135.748H11.8665C7.99442 135.748 4.85547 132.609 4.85547 128.737V11.0651Z" fill="#17CA9B"/>
<path d="M77.1244 32.5805L128.622 62.3407C134.969 66.0074 134.969 73.7981 128.622 77.4648L77.1244 107.225C69.7568 111.483 59.6553 107.111 59.6553 99.6642V40.1439C59.6522 32.6941 69.7537 28.3224 77.1244 32.5805Z" fill="white"/>
<path d="M4.85252 0.182953C2.27419 0.182953 0.181641 1.91563 0.181641 4.0563V135.75C0.181641 137.891 2.27419 139.623 4.85252 139.623H188.178C190.757 139.623 192.849 137.891 192.849 135.75V4.0563C192.849 1.91563 190.757 0.182953 188.178 0.182953H4.85252ZM183.511 117.855C183.511 125.599 177.233 131.877 169.489 131.877H23.5486C15.8044 131.877 9.52651 125.599 9.52651 117.855V21.9517C9.52651 14.2075 15.8044 7.92964 23.5486 7.92964H169.489C177.233 7.92964 183.511 14.2075 183.511 21.9517V117.855Z" fill="#17CA9B"/>
<path d="M63.4628 111.271C65.7702 112.27 68.2769 112.763 70.7743 112.763C73.9411 112.763 77.0862 111.968 79.7922 110.405L131.29 80.6478C135.525 78.2025 138.054 74.1871 138.054 69.9058C138.054 65.6244 135.525 61.6117 131.29 59.1663L79.7922 29.4061C74.9531 26.6096 68.7004 26.279 63.4628 28.541C58.2314 30.8057 54.9805 35.2523 54.9805 40.1456V99.666C54.9805 104.559 58.2314 109.006 63.4628 111.271ZM64.3222 40.1456C64.3222 38.1185 65.6176 36.3471 67.7849 35.4098C68.744 34.994 69.7654 34.7875 70.7805 34.7875C72.0603 34.7875 73.3308 35.1154 74.4518 35.761L125.95 65.5211C127.703 66.536 128.712 68.1318 128.712 69.9058C128.712 71.6798 127.706 73.2756 125.95 74.2904L74.4518 104.051C72.4433 105.207 69.9553 105.342 67.7849 104.402C65.6145 103.462 64.3222 101.693 64.3222 99.666V40.1456Z" fill="#17CA9B"/>
</svg>
