<svg width="48" height="48" viewBox="0 0 48 48" fill="none" xmlns="http://www.w3.org/2000/svg">
<g clip-path="url(#clip0)">
<path d="M23.7853 0C10.6703 0 0 10.6703 0 23.7853C0 36.9002 10.6703 47.5705 23.7853 47.5705C36.9002 47.5705 47.5705 36.9002 47.5705 23.7853C47.5705 10.6703 36.9002 0 23.7853 0ZM23.7853 44.5974C12.3093 44.5974 2.97317 35.2613 2.97317 23.7853C2.97317 12.3093 12.3093 2.97317 23.7853 2.97317C35.2613 2.97317 44.5974 12.3093 44.5974 23.7853C44.5974 35.2613 35.2613 44.5974 23.7853 44.5974Z" fill="white" fill-opacity="0.9"/>
<path d="M25.2715 8.91895H22.2983V24.4002L31.6533 33.7552L33.7554 31.6531L25.2715 23.1692V8.91895Z" fill="white" fill-opacity="0.9"/>
</g>
<defs>
<clipPath id="clip0">
<rect width="47.5705" height="47.5705" fill="white"/>
</clipPath>
</defs>
</svg>
