<svg width="49" height="48" viewBox="0 0 49 48" fill="none" xmlns="http://www.w3.org/2000/svg">
<g clip-path="url(#clip0)">
<path d="M27.2206 11.9399H19.7566C18.9869 11.9399 18.363 12.5639 18.363 13.3336V23.8821H16.7711C16.0014 23.8821 15.3774 24.5061 15.3774 25.2758C15.3774 26.0455 16.0014 26.6694 16.7711 26.6694H18.363V29.8532H16.7711C16.0014 29.8532 15.3774 30.4772 15.3774 31.2469C15.3774 32.0166 16.0014 32.6406 16.7711 32.6406H18.363V35.7252C18.363 36.4949 18.9869 37.1189 19.7566 37.1189C20.5263 37.1189 21.1503 36.4949 21.1503 35.7252V32.6406H27.2206C27.9902 32.6406 28.6142 32.0166 28.6142 31.2469C28.6142 30.4772 27.9902 29.8532 27.2206 29.8532H21.1503V26.6694H27.2206C31.2815 26.6694 34.5854 23.3656 34.5854 19.3046C34.5853 15.1433 31.1956 11.9399 27.2206 11.9399ZM27.2206 23.8821H21.1503V14.7273H27.2206C29.7293 14.7273 31.798 16.7509 31.798 19.3047C31.7979 21.8288 29.7446 23.8821 27.2206 23.8821Z" fill="white" fill-opacity="0.9"/>
<path d="M24.2345 0C11.1192 0 0.449219 10.67 0.449219 23.7853C0.449219 36.9005 11.1192 47.5705 24.2345 47.5705C37.3498 47.5705 48.0198 36.9005 48.0198 23.7853C48.0198 10.67 37.3498 0 24.2345 0ZM24.2345 44.7832C12.6562 44.7832 3.23656 35.3636 3.23656 23.7853C3.23656 12.207 12.6562 2.78734 24.2345 2.78734C35.8128 2.78734 45.2324 12.207 45.2324 23.7853C45.2324 35.3636 35.8128 44.7832 24.2345 44.7832Z" fill="white" fill-opacity="0.9"/>
</g>
<defs>
<clipPath id="clip0">
<rect width="47.5705" height="47.5705" fill="white" transform="translate(0.449219)"/>
</clipPath>
</defs>
</svg>
