<svg width="192" height="191" viewBox="0 0 192 191" fill="none" xmlns="http://www.w3.org/2000/svg">
<g clip-path="url(#clip0)">
<path d="M96.0605 190.787C148.738 190.787 191.441 148.184 191.441 95.6317C191.441 43.0791 148.738 0.476746 96.0605 0.476746C43.3831 0.476746 0.679688 43.0791 0.679688 95.6317C0.679688 148.184 43.3831 190.787 96.0605 190.787Z" fill="#17CA9B"/>
<path d="M129.155 108.839H76.2042V98.6731C76.2042 97.39 75.4609 96.2229 74.2944 95.681C73.1308 95.1394 71.7507 95.3167 70.7682 96.1422L40.9837 116.213C40.2341 116.841 39.8008 117.767 39.8008 118.744C39.8008 119.721 40.2337 120.646 40.9837 121.275L70.7682 141.346C71.7515 142.165 73.1181 142.351 74.2944 141.807C75.4609 141.265 76.2042 140.098 76.2042 138.815V128.649H129.155C130.984 128.649 132.464 127.172 132.464 125.347V112.141C132.464 110.316 130.984 108.839 129.155 108.839ZM151.137 69.9909L121.353 49.9203C120.37 49.0948 118.99 48.9175 117.827 49.4594C116.66 50.001 115.917 51.1681 115.917 52.4512V62.6172H62.9664C61.137 62.6172 59.6571 64.0939 59.6571 65.9186V79.1251C59.6571 80.9498 61.1374 82.4265 62.9664 82.4265H115.917V92.5925C115.917 93.8756 116.66 95.0427 117.827 95.5843C119.003 96.1285 120.369 95.9423 121.353 95.1234L151.137 75.0527C151.887 74.4242 152.32 73.4987 152.32 72.5215C152.32 71.545 151.887 70.6199 151.137 69.9909Z" fill="#F7F7F7"/>
</g>
<defs>
<clipPath id="clip0">
<rect width="190.762" height="190.31" fill="white" transform="translate(0.679688 0.476746)"/>
</clipPath>
</defs>
</svg>
