<svg width="41" height="63" viewBox="0 0 41 63" fill="none" xmlns="http://www.w3.org/2000/svg">
<path d="M23.6597 39.0645C32.8737 39.0645 40.3444 30.3996 40.3444 19.7104C40.3444 9.02118 32.8737 0.356201 23.6597 0.356201C23.6581 0.356201 23.6581 0.356201 23.6565 0.356201H5.86226C5.24795 0.356201 4.75106 0.93356 4.75106 1.64616V36.4827H1.41413C0.799827 36.4827 0.30127 37.061 0.30127 37.7755C0.30127 38.4862 0.799827 39.0645 1.41413 39.0645H4.75106V44.2244H1.41413C0.799827 44.2244 0.30127 44.8027 0.30127 45.5172C0.30127 46.2279 0.799827 46.8062 1.41413 46.8062H4.75106V61.0005C4.75106 61.7112 5.24805 62.2895 5.86226 62.2895C6.47646 62.2895 6.97512 61.7112 6.97512 61.0005V46.8062H25.8838C26.4981 46.8062 26.9967 46.2279 26.9967 45.5172C26.9967 44.8028 26.4981 44.2244 25.8838 44.2244H6.97512V39.0645H23.6597ZM6.97512 2.93708H23.6565H23.6597C25.6133 2.93708 27.5067 3.38029 29.2876 4.25353C31.0098 5.09834 32.5561 6.30797 33.884 7.84941C35.2135 9.39073 36.2563 11.1853 36.9846 13.1822C37.7374 15.2479 38.1203 17.4451 38.1203 19.7104C38.1203 21.9757 37.7374 24.1728 36.9846 26.2386C36.2563 28.2355 35.2135 30.0301 33.884 31.5714C32.5561 33.1128 31.0098 34.3224 29.2876 35.1673C27.5067 36.0404 25.6133 36.4827 23.6597 36.4827H6.97512V2.93708Z" fill="black"/>
</svg>
