<svg width="46" height="46" viewBox="0 0 46 46" fill="none" xmlns="http://www.w3.org/2000/svg">
<g clip-path="url(#clip0)">
<path d="M25.0903 45.4016H20.9089C19.4959 45.4016 18.3031 44.3432 18.1351 42.9376L17.6889 39.4357C16.7985 39.1464 15.9399 38.7898 15.1241 38.3736L12.3353 40.5408C11.2041 41.4162 9.61188 41.3154 8.63001 40.3056L5.69001 37.3656C4.68761 36.393 4.58681 34.8008 5.46228 33.6714L7.62948 30.8808C7.21134 30.065 6.85481 29.2064 6.56734 28.316L3.05801 27.8698C1.65801 27.6981 0.599609 26.5053 0.599609 25.0922V20.9109C0.599609 19.4978 1.65801 18.305 3.06361 18.137L6.56548 17.6909C6.85481 16.8005 7.21134 15.9418 7.62761 15.1261L5.46228 12.3373C4.58494 11.2061 4.68761 9.61196 5.69934 8.6301L8.63934 5.6901C9.61188 4.6877 11.206 4.58876 12.3335 5.46236L15.1223 7.63143C15.938 7.21516 16.7967 6.85863 17.6889 6.5693L18.1351 3.05996C18.3031 1.65996 19.4959 0.601562 20.9089 0.601562H25.0903C26.5033 0.601562 27.6961 1.65996 27.8641 3.06556L28.3103 6.56743C29.2025 6.85676 30.0612 7.2133 30.8769 7.62956L33.6657 5.46236C34.7988 4.5869 36.3892 4.6877 37.3711 5.69943L40.3111 8.63943C41.3135 9.61196 41.4143 11.2042 40.5388 12.3336L38.3716 15.1242C38.7897 15.94 39.1463 16.7986 39.4337 17.689L42.9431 18.1352C44.3412 18.305 45.3996 19.4978 45.3996 20.9109V25.0922C45.3996 26.5053 44.3412 27.6981 42.9356 27.8661L39.4337 28.3122C39.1444 29.2026 38.7879 30.0613 38.3716 30.877L40.5388 33.6658C41.4161 34.797 41.3135 36.3893 40.3017 37.3712L37.3617 40.3112C36.3892 41.3136 34.7951 41.4162 33.6676 40.5389L30.8769 38.3717C30.0612 38.7898 29.2025 39.1464 28.3121 39.4338L27.866 42.9432C27.6961 44.3432 26.5033 45.4016 25.0903 45.4016ZM15.0289 36.3296C15.1839 36.3296 15.3425 36.3688 15.4844 36.4472C16.5129 37.0221 17.6273 37.485 18.7959 37.821C19.1543 37.9237 19.4175 38.2298 19.4641 38.5994L19.9868 42.7061C20.0428 43.1746 20.4479 43.5349 20.9089 43.5349H25.0903C25.5513 43.5349 25.9564 43.1746 26.0105 42.7154L26.5351 38.6013C26.5817 38.2317 26.8449 37.9256 27.2033 37.8229C28.3719 37.4869 29.4863 37.024 30.5148 36.449C30.8415 36.2661 31.2484 36.2978 31.5415 36.5274L34.8081 39.0661C35.1833 39.3573 35.7097 39.333 36.0308 39.0026L38.9895 36.044C39.3273 35.7154 39.3535 35.189 39.0623 34.812L36.5236 31.5453C36.294 31.2504 36.2623 30.8453 36.4452 30.5186C37.0201 29.4901 37.4831 28.3757 37.8191 27.2072C37.9217 26.8488 38.2279 26.5856 38.5975 26.5389L42.7041 26.0162C43.1727 25.9584 43.5329 25.5533 43.5329 25.0922V20.9109C43.5329 20.4498 43.1727 20.0448 42.7135 19.9906L38.5993 19.4661C38.2297 19.4194 37.9236 19.1562 37.8209 18.7978C37.4849 17.6293 37.022 16.5149 36.4471 15.4864C36.2641 15.1597 36.294 14.7546 36.5255 14.4597L39.0641 11.193C39.3572 10.816 39.3311 10.2896 39.0025 9.97223L36.0439 7.01356C35.7172 6.67383 35.1889 6.6477 34.8119 6.94076L31.5452 9.47943C31.2484 9.70903 30.8433 9.74076 30.5167 9.55783C29.4919 8.9829 28.3775 8.52183 27.2052 8.18396C26.8468 8.0813 26.5836 7.77516 26.5369 7.40556L26.0143 3.2989C25.9564 2.8285 25.5513 2.46823 25.0903 2.46823H20.9089C20.4479 2.46823 20.0428 2.8285 19.9887 3.2877L19.4641 7.40183C19.4175 7.77143 19.1543 8.07756 18.7959 8.1821C17.6236 8.5181 16.5092 8.98103 15.4844 9.5541C15.1577 9.7389 14.7527 9.7053 14.4559 9.47756L11.1892 6.9389C10.8121 6.64583 10.2876 6.67196 9.96841 7.0005L7.00974 9.96103C6.67188 10.2896 6.64574 10.816 6.93694 11.193L9.47561 14.4597C9.70521 14.7546 9.73694 15.1597 9.55401 15.4864C8.97721 16.5149 8.51614 17.6293 8.18014 18.7978C8.07748 19.1562 7.77134 19.4194 7.40174 19.4661L3.29508 19.9888C2.82654 20.0448 2.46628 20.4498 2.46628 20.9109V25.0922C2.46628 25.5533 2.82654 25.9584 3.28574 26.0125L7.39988 26.537C7.76948 26.5837 8.07561 26.8469 8.17828 27.2053C8.51428 28.3738 8.97721 29.4882 9.55214 30.5168C9.73508 30.8434 9.70521 31.2485 9.47374 31.5434L6.93508 34.8101C6.64201 35.1872 6.66814 35.7136 6.99668 36.0309L9.95534 38.9896C10.282 39.3274 10.8065 39.3536 11.1873 39.0624L14.454 36.5237C14.6239 36.3968 14.8255 36.3296 15.0289 36.3296Z" fill="black"/>
<path d="M22.9989 32.3361C17.8525 32.3361 13.6655 28.1492 13.6655 23.0028C13.6655 17.8564 17.8525 13.6694 22.9989 13.6694C28.1453 13.6694 32.3322 17.8564 32.3322 23.0028C32.3322 28.1492 28.1453 32.3361 22.9989 32.3361ZM22.9989 15.5361C18.881 15.5361 15.5322 18.8849 15.5322 23.0028C15.5322 27.1206 18.881 30.4694 22.9989 30.4694C27.1167 30.4694 30.4655 27.1206 30.4655 23.0028C30.4655 18.8849 27.1167 15.5361 22.9989 15.5361Z" fill="black"/>
</g>
<defs>
<clipPath id="clip0">
<rect width="44.8" height="44.8" fill="white" transform="translate(0.599609 0.601562)"/>
</clipPath>
</defs>
</svg>
