<svg width="18" height="20" viewBox="0 0 18 20" fill="none" xmlns="http://www.w3.org/2000/svg">
<path d="M17.5 9.57227C17.5 14.5686 13.6693 18.5723 9 18.5723C4.33071 18.5723 0.5 14.5686 0.5 9.57227C0.5 4.57589 4.33071 0.572266 9 0.572266C13.6693 0.572266 17.5 4.57589 17.5 9.57227Z" stroke="black"/>
<g clip-path="url(#clip0)">
<path d="M13.8398 17.0723C13.5378 17.0723 13.293 16.8274 13.293 16.5254C13.293 14.3844 11.5511 12.6426 9.41016 12.6426H8.58984C6.44886 12.6426 4.70703 14.3844 4.70703 16.5254C4.70703 16.8274 4.4622 17.0723 4.16016 17.0723C3.85812 17.0723 3.61328 16.8274 3.61328 16.5254C3.61328 13.7813 5.84576 11.5488 8.58984 11.5488H9.41016C12.1542 11.5488 14.3867 13.7813 14.3867 16.5254C14.3867 16.8274 14.1419 17.0723 13.8398 17.0723Z" fill="black"/>
<path d="M8.94531 10.4551C6.90987 10.4551 5.25391 8.79911 5.25391 6.76367C5.25391 4.72823 6.90987 3.07227 8.94531 3.07227C10.9808 3.07227 12.6367 4.72823 12.6367 6.76367C12.6367 8.79911 10.9808 10.4551 8.94531 10.4551ZM8.94531 4.16602C7.51296 4.16602 6.34766 5.33132 6.34766 6.76367C6.34766 8.19602 7.51296 9.36133 8.94531 9.36133C10.3777 9.36133 11.543 8.19602 11.543 6.76367C11.543 5.33132 10.3777 4.16602 8.94531 4.16602Z" fill="black"/>
</g>
<defs>
<clipPath id="clip0">
<rect width="14" height="14" fill="white" transform="translate(2 3.07227)"/>
</clipPath>
</defs>
</svg>
