<?xml version="1.0" standalone="no"?>
<!DOCTYPE svg PUBLIC "-//W3C//DTD SVG 20010904//EN"
 "http://www.w3.org/TR/2001/REC-SVG-20010904/DTD/svg10.dtd">
<svg version="1.0" xmlns="http://www.w3.org/2000/svg"
 width="660.000000pt" height="660.000000pt" viewBox="0 0 660.000000 660.000000"
 preserveAspectRatio="xMidYMid meet">
<metadata>
Created by potrace 1.14, written by Peter Selinger 2001-2017
</metadata>
<g transform="translate(0.000000,660.000000) scale(0.100000,-0.100000)"
fill="#000000" stroke="none">
<path d="M308 6571 c-154 -49 -257 -167 -287 -326 -9 -44 -11 -827 -9 -2980
l3 -2920 22 -58 c43 -115 130 -203 243 -250 l55 -22 2945 -3 c2105 -2 2958 1
2989 8 120 30 236 125 289 237 l27 58 0 2985 0 2985 -27 57 c-29 63 -103 148
-160 184 -20 13 -64 32 -97 44 -60 20 -68 20 -2998 19 -2821 0 -2940 -1 -2995
-18z m3193 -1422 c131 -13 233 -34 329 -66 420 -143 674 -502 706 -1001 l7
-102 -380 0 -380 0 -13 63 c-21 109 -59 213 -94 258 -40 53 -95 84 -236 135
-98 35 -113 38 -220 38 -131 1 -183 -10 -283 -62 -118 -61 -161 -148 -162
-322 0 -126 17 -171 95 -254 86 -91 204 -139 420 -171 631 -93 1098 -305 1214
-549 14 -29 34 -97 46 -152 40 -187 38 -586 -4 -767 -49 -208 -322 -419 -651
-502 -220 -56 -556 -80 -790 -55 -418 42 -737 232 -930 550 -88 147 -165 357
-181 499 l-6 56 273 -12 c151 -6 297 -12 325 -12 l51 -1 27 -64 c61 -143 197
-320 298 -389 45 -30 69 -38 154 -51 205 -32 395 -16 518 43 144 69 206 180
206 371 0 156 -41 262 -138 352 -97 91 -224 134 -425 143 -431 21 -799 181
-998 434 -273 347 -267 831 16 1188 110 140 282 259 471 326 199 71 490 101
735 76z"/>
</g>
</svg>
